# xmcd
# Track frame offsets:
# 150
# 12680
# 27682
# 42192
# 57642
# 73160
# 85155
# 98622
# 117470
# 131210
# 146092
# 164325
#
# Disc length: 2377 seconds
# Revision: 0
# Processed by: cddbd v1.5.2PL0 Copyright (c) Steve Scherf et al.
# Submitted via: VisiTrax 2.10.3.257 - For more info visit www.synapsa.com
#
DISCID=b709470c
DTITLE=Dolly Parton - Greatest Hits
DYEAR=1982
DGENRE=Country
TTITLE0=Dolly Parton - 9 To 5
TTITLE1=Dolly Parton - But You Know I Love You
TTITLE2=Dolly Parton - Heartbreak Express
TTITLE3=Dolly Parton - Old Flames (Can't Hold A Candle To You)
TTITLE4=Dolly Parton - Applejack
TTITLE5=Dolly Parton - Me And Little Andy
TTITLE6=Dolly Parton - Here You Come Again
TTITLE7=Dolly Parton and Kenny Rogers - Islands In The Stream
TTITLE8=Dolly Parton - Two Doors Down
TTITLE9=Dolly Parton - It's All Wrong, But It's All Right
TTITLE10=Dolly Parton - Do I Ever Cross Your Mind?
TTITLE11=Dolly Parton - I Will Always Love You
EXTD=YEAR: 1982
EXTT0=
EXTT1=
EXTT2=
EXTT3=
EXTT4=
EXTT5=
EXTT6=
EXTT7=
EXTT8=
EXTT9=
EXTT10=
EXTT11=
PLAYORDER=
